<?xml version="1.0" standalone="no"?><!DOCTYPE svg PUBLIC "-//W3C//DTD SVG 1.1//EN" "http://www.w3.org/Graphics/SVG/1.1/DTD/svg11.dtd"><svg t="1724857665130" class="icon" viewBox="0 0 1024 1024" version="1.1" xmlns="http://www.w3.org/2000/svg" p-id="10692" xmlns:xlink="http://www.w3.org/1999/xlink" width="256" height="256"><path d="M170.688 170.688h42.688v42.688h-42.688z" fill="#E95164" p-id="10693"></path><path d="M213.312 170.688H256v42.688h-42.688zM256 170.688h42.688v42.688H256z" fill="#84C255" p-id="10694"></path><path d="M298.688 170.688h42.688v42.688h-42.688z" fill="#E95164" p-id="10695"></path><path d="M341.312 170.688H384v42.688h-42.688zM384 170.688h42.688v42.688H384zM426.688 170.688h42.688v42.688h-42.688z" fill="#E95164" p-id="10696"></path><path d="M469.312 170.688H512v42.688h-42.688zM128 213.312h42.688V256H128z" fill="#E95164" p-id="10697"></path><path d="M170.688 213.312h42.688V256h-42.688z" fill="#84C255" p-id="10698"></path><path d="M213.312 213.312H256V256h-42.688zM256 213.312h42.688V256H256zM298.688 213.312h42.688V256h-42.688z" fill="#E95164" p-id="10699"></path><path d="M341.312 213.312H384V256h-42.688zM384 213.312h42.688V256H384zM426.688 213.312h42.688V256h-42.688z" fill="#E95164" p-id="10700"></path><path d="M469.312 213.312H512V256h-42.688zM85.312 256H128v42.688h-42.688zM128 256h42.688v42.688H128zM170.688 256h42.688v42.688h-42.688z" fill="#E95164" p-id="10701"></path><path d="M213.312 256H256v42.688h-42.688zM256 256h42.688v42.688H256zM298.688 256h42.688v42.688h-42.688z" fill="#E95164" p-id="10702"></path><path d="M341.312 256H384v42.688h-42.688zM384 256h42.688v42.688H384zM426.688 256h42.688v42.688h-42.688z" fill="#E95164" p-id="10703"></path><path d="M469.312 256H512v42.688h-42.688zM42.688 298.688h42.688v42.688H42.688z" fill="#E95164" p-id="10704"></path><path d="M85.312 298.688H128v42.688h-42.688zM128 298.688h42.688v42.688H128zM170.688 298.688h42.688v42.688h-42.688z" fill="#E95164" p-id="10705"></path><path d="M213.312 298.688H256v42.688h-42.688zM256 298.688h42.688v42.688H256zM298.688 298.688h42.688v42.688h-42.688z" fill="#E95164" p-id="10706"></path><path d="M341.312 298.688H384v42.688h-42.688zM384 298.688h42.688v42.688H384zM426.688 298.688h42.688v42.688h-42.688zM512 170.688h42.688v42.688H512z" fill="#E95164" p-id="10707"></path><path d="M512 213.312h42.688V256H512zM512 256h42.688v42.688H512zM554.688 170.688h42.688v42.688h-42.688z" fill="#E95164" p-id="10708"></path><path d="M554.688 213.312h42.688V256h-42.688z" fill="#FFF100" p-id="10709"></path><path d="M554.688 256h42.688v42.688h-42.688zM554.688 298.688h42.688v42.688h-42.688zM597.312 170.688H640v42.624h-42.688z" fill="#E95164" p-id="10710"></path><path d="M597.312 213.312H640V256h-42.688z" fill="#FFF100" p-id="10711"></path><path d="M597.312 256H640v42.688h-42.688zM597.312 298.688H640v42.688h-42.688z" fill="#E95164" p-id="10712"></path><path d="M640 213.312h42.688V256H640z" fill="#FFF100" p-id="10713"></path><path d="M640 256h42.688v42.688H640zM682.688 213.312h42.624V256h-42.624zM640 170.688h42.688v42.624H640zM682.688 170.688h42.688v42.624h-42.688z" fill="#E95164" p-id="10714"></path><path d="M725.312 170.688H768v42.624h-42.688zM341.312 42.688H384v42.688h-42.688zM384 42.688h42.688v42.688H384zM426.688 42.688h42.688v42.688h-42.688z" fill="#E95164" p-id="10715"></path><path d="M469.312 42.688H512v42.688h-42.688zM213.312 85.312H256V128h-42.688zM256 85.312h42.688V128H256zM298.688 85.312h42.688V128h-42.688z" fill="#E95164" p-id="10716"></path><path d="M341.312 85.312H384V128h-42.688zM384 85.312h42.688V128H384zM426.688 85.312h42.688V128h-42.688z" fill="#E95164" p-id="10717"></path><path d="M469.312 85.312H512V128h-42.688zM512 42.688h42.688v42.688H512z" fill="#E95164" p-id="10718"></path><path d="M512 85.312h42.688V128H512zM554.688 42.688h42.688v42.688h-42.688z" fill="#E95164" p-id="10719"></path><path d="M554.688 85.312h42.688V128h-42.688z" fill="#E95164" p-id="10720"></path><path d="M597.312 42.688H640v42.688h-42.688z" fill="#E95164" p-id="10721"></path><path d="M597.312 85.312H640V128h-42.688zM640 42.688h42.688v42.688H640z" fill="#E95164" p-id="10722"></path><path d="M640 85.312h42.688V128H640zM682.688 85.312h42.688V128h-42.688z" fill="#E95164" p-id="10723"></path><path d="M725.312 85.312H768V128h-42.688zM768 85.312h42.688V128H768zM682.688 298.688h42.688v42.688h-42.688zM725.312 256H768v42.688h-42.688z" fill="#E95164" p-id="10724"></path><path d="M725.312 298.688H768v42.688h-42.688zM768 213.312h42.688V256H768zM768 256h42.688v42.688H768zM768 298.688h42.688v42.688H768zM810.688 170.688h42.688v42.688h-42.688z" fill="#E95164" p-id="10725"></path><path d="M810.688 213.312h42.688V256h-42.688zM810.688 256h42.688v42.688h-42.688zM810.688 298.688h42.688v42.688h-42.688z" fill="#E95164" p-id="10726"></path><path d="M853.312 213.312H896V256h-42.688zM853.312 256H896v42.688h-42.688zM853.312 298.688H896v42.688h-42.688zM896 256h42.688v42.688H896zM896 298.688h42.688v42.688H896zM938.688 298.688h42.688v42.688h-42.688zM682.688 384h42.688v42.688h-42.688zM682.688 426.688h42.688v42.688h-42.688z" fill="#E95164" p-id="10727"></path><path d="M725.312 384H768v42.688h-42.688zM725.312 426.688H768v42.688h-42.688z" fill="#E95164" p-id="10728"></path><path d="M725.312 469.312H768V512h-42.688zM725.312 512H768v42.688h-42.688zM768 384h42.688v42.688H768zM768 426.688h42.688v42.688H768z" fill="#E95164" p-id="10729"></path><path d="M768 469.312h42.688V512H768zM768 512h42.688v42.688H768zM682.688 554.688h42.688v42.688h-42.688z" fill="#E95164" p-id="10730"></path><path d="M682.688 597.312h42.688V640h-42.688z" fill="#E95164" p-id="10731"></path><path d="M725.312 554.688H768v42.688h-42.688z" fill="#E95164" p-id="10732"></path><path d="M725.312 597.312H768V640h-42.688zM682.688 640h42.688v42.688h-42.688z" fill="#E95164" p-id="10733"></path><path d="M725.312 640H768v42.688h-42.688zM768 554.688h42.688v42.688H768z" fill="#E95164" p-id="10734"></path><path d="M768 597.312h42.688V640H768zM768 640h42.688v42.688H768zM768 682.688h42.688v42.688H768z" fill="#E95164" p-id="10735"></path><path d="M810.688 384h42.688v42.688h-42.688zM810.688 426.688h42.688v42.688h-42.688z" fill="#00B7EE" p-id="10736"></path><path d="M810.688 469.312h42.688V512h-42.688z" fill="#00B7EE" p-id="10737"></path><path d="M810.688 512h42.688v42.688h-42.688zM810.688 554.688h42.688v42.688h-42.688z" fill="#E95164" p-id="10738"></path><path d="M810.688 597.312h42.688V640h-42.688zM810.688 640h42.688v42.688h-42.688zM810.688 682.688h42.688v42.688h-42.688z" fill="#E95164" p-id="10739"></path><path d="M810.688 725.312h42.688V768h-42.688zM853.312 384H896v42.688h-42.688zM853.312 426.688H896v42.688h-42.688z" fill="#E95164" p-id="10740"></path><path d="M853.312 469.312H896V512h-42.688zM896 384h42.688v42.688H896zM896 426.688h42.688v42.688H896z" fill="#E95164" p-id="10741"></path><path d="M896 469.312h42.688V512H896zM853.312 512H896v42.688h-42.688zM896 512h42.688v42.688H896zM938.688 384h42.688v42.688h-42.688zM938.688 426.688h42.688v42.688h-42.688z" fill="#E95164" p-id="10742"></path><path d="M938.688 469.312h42.688V512h-42.688zM938.688 512h42.688v42.688h-42.688zM853.312 554.688H896v42.688h-42.688z" fill="#E95164" p-id="10743"></path><path d="M853.312 597.312H896V640h-42.688z" fill="#E95164" p-id="10744"></path><path d="M896 554.688h42.688v42.688H896z" fill="#84C255" p-id="10745"></path><path d="M896 597.312h42.688V640H896zM853.312 640H896v42.688h-42.688zM896 640h42.688v42.688H896z" fill="#84C255" p-id="10746"></path><path d="M938.688 554.688h42.688v42.688h-42.688z" fill="#E95164" p-id="10747"></path><path d="M938.688 597.312h42.688V640h-42.688zM938.688 640h42.688v42.688h-42.688zM853.312 682.688H896v42.688h-42.688zM896 682.688h42.688v42.688H896zM938.688 682.688h42.688v42.688h-42.688z" fill="#E95164" p-id="10748"></path><path d="M853.312 725.312H896V768h-42.688zM42.688 384h42.688v42.688H42.688z" fill="#E95164" p-id="10749"></path><path d="M85.312 384H128v42.688h-42.688zM128 384h42.688v42.688H128zM170.688 384h42.688v42.688h-42.688z" fill="#E95164" p-id="10750"></path><path d="M213.312 384H256v42.688h-42.688zM256 384h42.688v42.688H256zM298.688 384h42.688v42.688h-42.688zM42.688 426.688h42.688v42.688H42.688z" fill="#E95164" p-id="10751"></path><path d="M85.312 426.688H128v42.688h-42.688zM128 426.688h42.688v42.688H128zM170.688 426.688h42.688v42.688h-42.688z" fill="#E95164" p-id="10752"></path><path d="M213.312 426.688H256v42.688h-42.688zM256 426.688h42.688v42.688H256zM298.688 426.688h42.688v42.688h-42.688zM42.688 469.312h42.688V512H42.688z" fill="#E95164" p-id="10753"></path><path d="M213.312 469.312H256V512h-42.688zM42.688 512h42.688v42.688H42.688zM213.312 512H256v42.688h-42.688zM42.688 554.688h42.688v42.688H42.688z" fill="#E95164" p-id="10754"></path><path d="M128 554.688h42.688v42.688H128zM213.312 554.688H256v42.688h-42.688z" fill="#F18B00" p-id="10755"></path><path d="M298.688 554.688h42.688v42.688h-42.688zM42.688 597.312h42.688V640H42.688zM128 597.312h42.688V640H128zM213.312 597.312H256V640h-42.688z" fill="#E95164" p-id="10756"></path><path d="M298.688 597.312h42.688V640h-42.688zM42.688 640h42.688v42.688H42.688z" fill="#E95164" p-id="10757"></path><path d="M85.312 640H128v42.688h-42.688zM128 640h42.688v42.688H128zM170.688 640h42.688v42.688h-42.688z" fill="#E95164" p-id="10758"></path><path d="M213.312 640H256v42.688h-42.688zM256 640h42.688v42.688H256zM298.688 640h42.688v42.688h-42.688z" fill="#E95164" p-id="10759"></path><path d="M341.312 640H384v42.688h-42.688zM85.312 682.688H128v42.688h-42.688zM128 682.688h42.688v42.688H128zM170.688 682.688h42.688v42.688h-42.688z" fill="#E95164" p-id="10760"></path><path d="M213.312 682.688H256v42.688h-42.688zM256 682.688h42.688v42.688H256zM298.688 682.688h42.688v42.688h-42.688z" fill="#E95164" p-id="10761"></path><path d="M341.312 682.688H384v42.688h-42.688zM384 682.688h42.688v42.688H384zM426.688 682.688h42.688v42.688h-42.688zM554.688 682.688h42.688v42.688h-42.688z" fill="#E95164" p-id="10762"></path><path d="M597.312 682.688H640v42.688h-42.688zM170.688 725.312h42.688V768h-42.688zM341.312 725.312H384V768h-42.688zM384 725.312h42.688V768H384zM426.688 725.312h42.688V768h-42.688z" fill="#E95164" p-id="10763"></path><path d="M469.312 725.312H512V768h-42.688zM384 768h42.688v42.688H384zM512 725.312h42.688V768H512zM512 768h42.688v42.688H512zM554.688 725.312h42.688V768h-42.688zM256 768h42.688v42.688H256zM298.688 768h42.688v42.688h-42.688zM298.688 810.688h42.688v42.688h-42.688z" fill="#E95164" p-id="10764"></path><path d="M341.312 810.688H384v42.688h-42.688zM554.688 768h42.688v42.688h-42.688zM170.688 128h42.688v42.688h-42.688z" fill="#E95164" p-id="10765"></path><path d="M213.312 128H256v42.688h-42.688zM256 128h42.688v42.688H256z" fill="#E95164" p-id="10766"></path><path d="M298.688 128h42.688v42.688h-42.688z" fill="#84C255" p-id="10767"></path><path d="M341.312 128H384v42.688h-42.688zM384 128h42.688v42.688H384zM426.688 128h42.688v42.688h-42.688z" fill="#E95164" p-id="10768"></path><path d="M469.312 128H512v42.688h-42.688zM128 170.688h42.688v42.688H128zM85.312 213.312H128V256h-42.688zM42.688 341.312h42.688V384H42.688z" fill="#E95164" p-id="10769"></path><path d="M85.312 341.312H128V384h-42.688zM128 341.312h42.688V384H128zM170.688 341.312h42.688V384h-42.688z" fill="#E95164" p-id="10770"></path><path d="M213.312 341.312H256V384h-42.688zM256 341.312h42.688V384H256zM298.688 341.312h42.688V384h-42.688z" fill="#E95164" p-id="10771"></path><path d="M341.312 341.312H384V384h-42.688zM512 128h42.688v42.688H512zM554.688 128h42.688v42.688h-42.688z" fill="#E95164" p-id="10772"></path><path d="M597.312 128H640v42.688h-42.688zM640 128h42.688v42.688H640zM640 298.688h42.688v42.688H640z" fill="#E95164" p-id="10773"></path><path d="M640 341.312h42.688V384H640zM640 640h42.688v42.688H640zM682.688 128h42.688v42.688h-42.688z" fill="#E95164" p-id="10774"></path><path d="M682.688 256h42.688v42.688h-42.688z" fill="#FFF100" p-id="10775"></path><path d="M682.688 341.312h42.688V384h-42.688zM725.312 128H768v42.688h-42.688zM725.312 213.312H768V256h-42.688z" fill="#E95164" p-id="10776"></path><path d="M725.312 341.312H768V384h-42.688zM768 128h42.688v42.688H768zM768 170.688h42.688v42.688H768zM768 341.312h42.688V384H768zM810.688 128h42.688v42.688h-42.688zM810.688 341.312h42.688V384h-42.688zM853.312 170.688H896v42.688h-42.688z" fill="#E95164" p-id="10777"></path><path d="M853.312 341.312H896V384h-42.688z" fill="#00B7EE" p-id="10778"></path><path d="M896 213.312h42.688V256H896zM896 341.312h42.688V384H896zM938.688 341.312h42.688V384h-42.688z" fill="#E95164" p-id="10779"></path><path d="M85.312 469.312H128V512h-42.688z" fill="#F18B00" p-id="10780"></path><path d="M128 469.312h42.688V512H128zM170.688 469.312h42.688V512h-42.688zM256 469.312h42.688V512H256zM85.312 512H128v42.688h-42.688z" fill="#E95164" p-id="10781"></path><path d="M128 512h42.688v42.688H128z" fill="#F18B00" p-id="10782"></path><path d="M170.688 512h42.688v42.688h-42.688zM256 512h42.688v42.688H256zM85.312 554.688H128v42.688h-42.688z" fill="#E95164" p-id="10783"></path><path d="M170.688 554.688h42.688v42.688h-42.688z" fill="#F18B00" p-id="10784"></path><path d="M256 554.688h42.688v42.688H256zM85.312 597.312H128V640h-42.688zM170.688 597.312h42.688V640h-42.688z" fill="#E95164" p-id="10785"></path><path d="M256 597.312h42.688V640H256zM213.312 725.312H256V768h-42.688zM256 725.312h42.688V768H256zM298.688 725.312h42.688V768h-42.688zM341.312 768H384v42.688h-42.688z" fill="#E95164" p-id="10786"></path><path d="M682.688 725.312h42.688V768h-42.688z" fill="#FDD120" p-id="10787"></path><path d="M725.312 725.312H768V768h-42.688zM725.312 768H768v42.688h-42.688zM768 768h42.688v42.688H768zM768 810.688h42.688v42.688H768zM810.688 810.688h42.688v42.688h-42.688zM85.312 768H128v42.688h-42.688zM128 768h42.688v42.688H128zM426.688 810.688h42.688v42.688h-42.688z" fill="#FDD120" p-id="10788"></path><path d="M469.312 810.688H512v42.688h-42.688zM170.688 810.688h42.688v42.688h-42.688z" fill="#FDD120" p-id="10789"></path><path d="M213.312 810.688H256v42.688h-42.688zM597.312 810.688H640v42.688h-42.688z" fill="#FDD120" p-id="10790"></path><path d="M170.688 853.312h42.688V896h-42.688z" fill="#FDD120" p-id="10791"></path><path d="M213.312 853.312H256V896h-42.688zM256 853.312h42.688V896H256zM384 853.312h42.688V896H384zM512 853.312h42.688V896H512zM554.688 853.312h42.688V896h-42.688z" fill="#FDD120" p-id="10792"></path><path d="M597.312 853.312H640V896h-42.688zM213.312 896H256v42.688h-42.688zM256 896h42.688v42.688H256zM298.688 896h42.688v42.688h-42.688z" fill="#FDD120" p-id="10793"></path><path d="M341.312 896H384v42.688h-42.688zM384 896h42.688v42.688H384zM426.688 896h42.688v42.688h-42.688z" fill="#FDD120" p-id="10794"></path><path d="M469.312 896H512v42.688h-42.688zM341.312 938.688H384v42.688h-42.688zM384 938.688h42.688v42.688H384zM426.688 938.688h42.688v42.688h-42.688z" fill="#FDD120" p-id="10795"></path><path d="M469.312 938.688H512v42.688h-42.688zM512 896h42.688v42.688H512zM512 938.688h42.688v42.688H512zM554.688 896h42.688v42.688h-42.688zM554.688 938.688h42.688v42.688h-42.688z" fill="#FDD120" p-id="10796"></path><path d="M597.312 896H640v42.688h-42.688zM597.312 938.688H640v42.688h-42.688zM682.688 853.312h42.688V896h-42.688zM682.688 896h42.688v42.688h-42.688z" fill="#FDD120" p-id="10797"></path><path d="M682.688 810.688h42.688v42.688h-42.688z" fill="#FDD120" p-id="10798"></path><path d="M725.312 853.312H768V896h-42.688zM725.312 896H768v42.688h-42.688zM768 896h42.688v42.688H768zM682.688 768h42.688v42.688h-42.688z" fill="#FDD120" p-id="10799"></path><path d="M725.312 810.688H768v42.688h-42.688zM896 768h42.688v42.688H896zM853.312 810.688H896v42.688h-42.688zM426.688 853.312h42.688V896h-42.688z" fill="#FDD120" p-id="10800"></path><path d="M469.312 853.312H512V896h-42.688zM768 853.312h42.688V896H768zM810.688 853.312h42.688V896h-42.688zM640 725.312h42.688V768H640zM640 768h42.688v42.688H640zM640 810.688h42.688v42.688H640z" fill="#FDD120" p-id="10801"></path><path d="M640 853.312h42.688V896H640zM640 896h42.688v42.688H640zM640 938.688h42.688v42.688H640zM128 810.688h42.688v42.688H128z" fill="#FDD120" p-id="10802"></path><path d="M469.312 298.688H512v42.688h-42.688zM512 298.688h42.688v42.688H512zM213.312 42.688H256v42.688h-42.688zM256 42.688h42.688v42.688H256zM298.688 42.688h42.688v42.688h-42.688zM682.688 42.688h42.688v42.688h-42.688z" p-id="10803"></path><path d="M725.312 42.688H768v42.688h-42.688zM768 42.688h42.688v42.688H768zM682.688 469.312h42.688V512h-42.688zM682.688 512h42.688v42.688h-42.688zM682.688 682.688h42.688v42.688h-42.688z" p-id="10804"></path><path d="M725.312 682.688H768v42.688h-42.688zM768 725.312h42.688V768H768zM810.688 768h42.688v42.688h-42.688z" p-id="10805"></path><path d="M853.312 768H896v42.688h-42.688zM896 725.312h42.688V768H896zM341.312 384H384v42.688h-42.688zM341.312 426.688H384v42.688h-42.688zM298.688 512h42.688v42.688h-42.688zM384 640h42.688v42.688H384zM426.688 640h42.688v42.688h-42.688zM554.688 640h42.688v42.688h-42.688z" p-id="10806"></path><path d="M597.312 640H640v42.688h-42.688zM42.688 682.688h42.688v42.688H42.688zM469.312 682.688H512v42.688h-42.688zM512 682.688h42.688v42.688H512z" p-id="10807"></path><path d="M42.688 725.312h42.688V768H42.688z" p-id="10808"></path><path d="M85.312 725.312H128V768h-42.688zM128 725.312h42.688V768H128zM42.688 768h42.688v42.688H42.688zM426.688 768h42.688v42.688h-42.688z" p-id="10809"></path><path d="M469.312 768H512v42.688h-42.688zM213.312 768H256v42.688h-42.688zM256 810.688h42.688v42.688H256zM597.312 768H640v42.688h-42.688zM554.688 810.688h42.688v42.688h-42.688zM128 853.312h42.688V896H128zM298.688 853.312h42.688V896h-42.688z" p-id="10810"></path><path d="M341.312 853.312H384V896h-42.688zM170.688 896h42.688v42.688h-42.688zM213.312 938.688H256v42.688h-42.688zM256 938.688h42.688v42.688H256zM298.688 938.688h42.688v42.688h-42.688zM682.688 938.688h42.688v42.688h-42.688zM896 810.688h42.688v42.688H896zM938.688 768h42.688v42.688h-42.688z" p-id="10811"></path><path d="M725.312 938.688H768v42.688h-42.688zM768 938.688h42.688v42.688H768zM810.688 896h42.688v42.688h-42.688zM853.312 853.312H896V896h-42.688zM512 810.688h42.688v42.688H512zM597.312 725.312H640V768h-42.688zM938.688 725.312h42.688V768h-42.688zM341.312 0H384v42.688h-42.688zM384 0h42.688v42.688H384zM426.688 0h42.688v42.688h-42.688z" p-id="10812"></path><path d="M469.312 0H512v42.688h-42.688zM170.688 85.312h42.688V128h-42.688zM85.312 170.688H128v42.688h-42.688zM42.688 256h42.688v42.688H42.688zM0 298.688h42.688v42.688H0z" p-id="10813"></path><path d="M42.688 213.312h42.688V256H42.688zM128 128h42.688v42.688H128zM0 341.312h42.688V384H0zM384 341.312h42.688V384H384zM426.688 341.312h42.688V384h-42.688zM0 384h42.688v42.688H0zM0 426.688h42.688v42.688H0z" p-id="10814"></path><path d="M0 469.312h42.688V512H0zM512 0h42.688v42.688H512zM0 512h42.688v42.688H0zM554.688 0h42.688v42.688h-42.688zM554.688 341.312h42.688V384h-42.688z" p-id="10815"></path><path d="M597.312 0H640v42.688h-42.688zM597.312 341.312H640V384h-42.688zM640 0h42.688v42.688H640zM640 384h42.688v42.688H640zM640 426.688h42.688v42.688H640zM0 554.688h42.688v42.688H0z" p-id="10816"></path><path d="M0 597.312h42.688V640H0zM0 640h42.688v42.688H0zM640 554.688h42.688v42.688H640z" p-id="10817"></path><path d="M640 597.312h42.688V640H640zM853.312 128H896v42.688h-42.688zM896 170.688h42.688v42.688H896z" p-id="10818"></path><path d="M938.624 213.312h42.688V256h-42.688zM0 682.688h42.688v42.688H0zM640 682.688h42.688v42.688H640zM810.688 85.312h42.688V128h-42.688zM938.688 256h42.688v42.688h-42.688zM981.312 298.688H1024v42.688h-42.688z" p-id="10819"></path><path d="M981.312 341.312H1024V384h-42.688zM981.312 384H1024v42.688h-42.688zM981.312 426.688H1024v42.688h-42.688z" p-id="10820"></path><path d="M981.312 469.312H1024V512h-42.688zM981.312 512H1024v42.688h-42.688zM981.312 554.688H1024v42.688h-42.688z" p-id="10821"></path><path d="M981.312 597.312H1024V640h-42.688zM981.312 640H1024v42.688h-42.688zM981.312 682.688H1024v42.688h-42.688zM341.312 981.312H384V1024h-42.688zM384 981.312h42.688V1024H384zM426.688 981.312h42.688V1024h-42.688z" p-id="10822"></path><path d="M469.312 981.312H512V1024h-42.688zM512 981.312h42.688V1024H512zM554.688 981.312h42.688V1024h-42.688z" p-id="10823"></path><path d="M597.312 981.312H640V1024h-42.688zM640 981.312h42.688V1024H640zM341.312 554.688H384v42.688h-42.688z" p-id="10824"></path><path d="M341.312 597.312H384V640h-42.688zM170.688 768h42.688v42.688h-42.688zM85.312 810.688H128v42.688h-42.688zM384 810.688h42.688v42.688H384zM298.688 469.312h42.688V512h-42.688z" p-id="10825"></path></svg>