<?xml version="1.0" standalone="no"?><!DOCTYPE svg PUBLIC "-//W3C//DTD SVG 1.1//EN" "http://www.w3.org/Graphics/SVG/1.1/DTD/svg11.dtd"><svg t="1725274419000" class="icon" viewBox="0 0 1024 1024" version="1.1" xmlns="http://www.w3.org/2000/svg" p-id="13959" xmlns:xlink="http://www.w3.org/1999/xlink" width="256" height="256"><path d="M685.38 1024a1215.83 1215.83 0 0 0-17.51-141.16c-20.65-112-55.4-219.74-99.34-324.66-53.1-126.8-118.62-247-191.6-363.35-2.29-3.65-4.56-7.32-6.84-11 1.13-1.53 2.57-0.88 3.76-0.88q120-0.06 240-0.11c3.26 0 5.1 1.15 6.92 3.68a1848.88 1848.88 0 0 1 173.44 295.15c48.63 103.76 87.54 211 113.68 322.65A1512.6 1512.6 0 0 1 936.47 963c2.52 20.31 4.62 40.68 6.91 61z" fill="#57B281" p-id="13960"></path><path d="M919.38 0c3.51 1.35 7.19 2.38 10.5 4.12a36.18 36.18 0 0 1 18.74 23.41 1768.9 1768.9 0 0 1 45.48 212.8q9.72 65 14.52 130.5c3 40.71 4.66 81.46 5.2 122.28q0.69 53.75-1.75 107.4-3.69 81.84-14.43 163.12A1784.2 1784.2 0 0 1 958.29 968c-0.4 1.59-0.9 3.16-1.54 5.37-2-3.28-1.73-6.51-2.1-9.43-6.27-50.11-15.12-99.74-26.18-148.94-23-102.18-55.89-201.06-97.69-297.05q-34.73-79.77-77.07-155.76c-3.74-6.72-3.42-13.85-4.05-20.83q-5.52-61.48-15.49-122.36a1722.64 1722.64 0 0 0-42.37-191c-4.14-14.68-0.89-21.85 12.58-28zM351.05 841.07c-40.67 0-81.33-0.09-122 0.11-4.36 0-5.88-1.44-7-5.42-19.86-68.39-44.17-135.16-73.92-199.9a1170.47 1170.47 0 0 0-82.24-149.67c-16.17-24.88-33.51-48.93-51.45-72.55-5.91-7.77-5.76-14.67-0.25-22.51 3-4.26 7.24-6.26 12.21-6.92a46 46 0 0 1 6-0.2c68.83 0 137.66 0.11 206.48-0.1 14.92-0.05 26.06 5.62 34.82 17.69 54.38 75 100.94 154.46 138.12 239.33a1171.49 1171.49 0 0 1 65.66 195.32c1 4.22 0.07 4.9-3.93 4.89-40.84-0.14-81.67-0.07-122.5-0.07zM489.84 812.15a1170.63 1170.63 0 0 0-48.8-148.5 1223.84 1223.84 0 0 0-94.38-185.46 14.21 14.21 0 0 1-2.11-10.76q13.09-73 19.05-147c2.72-34 4.64-68.08 5-102.21 1.54-0.38 1.69 0.91 2.16 1.66 46.95 75.8 90.66 153.41 130 233.44q31.63 64.35 59 130.66a12.38 12.38 0 0 1 0.59 8.16 1816.59 1816.59 0 0 1-68.27 215c-0.48 1.4-1.17 2.71-2.24 5.01z" fill="#57B281" p-id="13961"></path></svg>