<?xml version="1.0" standalone="no"?><!DOCTYPE svg PUBLIC "-//W3C//DTD SVG 1.1//EN" "http://www.w3.org/Graphics/SVG/1.1/DTD/svg11.dtd"><svg t="1725274017026" class="icon" viewBox="0 0 1024 1024" version="1.1" xmlns="http://www.w3.org/2000/svg" p-id="8284" xmlns:xlink="http://www.w3.org/1999/xlink" width="256" height="256"><path d="M1011.951528 382.909233H12.048472l67.007114-58.68126h865.888828l67.007114 58.68126z" fill="#BC0D0D" p-id="8285"></path><path d="M999.382691 382.909233H24.617309l58.200923-51.316082 859.084043-0.720506 57.480416 52.036588z" fill="#960404" p-id="8286"></path><path d="M816.454069 0a8.485967 8.485967 0 0 0-5.363771 1.921351l-1.280901 1.280901-141.779689 141.859745H356.290517L214.110546 3.122195l-1.2809-1.200844a8.485967 8.485967 0 0 0-13.769682 6.084278v435.666328h625.880072V8.005629a8.485967 8.485967 0 0 0-8.485967-8.005629z" fill="#181C31" p-id="8287"></path><path d="M319.144398 302.772887a56.51974 55.23884 90 1 0 110.47768 0 56.51974 55.23884 90 1 0-110.47768 0Z" fill="#F90B0B" p-id="8288"></path><path d="M358.131811 302.772887a23.696662 16.251427 90 1 0 32.502854 0 23.696662 16.251427 90 1 0-32.502854 0Z" fill="#181C31" p-id="8289"></path><path d="M594.377922 302.772887a56.51974 55.23884 90 1 0 110.47768 0 56.51974 55.23884 90 1 0-110.47768 0Z" fill="#0ADDED" p-id="8290"></path><path d="M633.365335 302.772887a23.696662 16.251427 90 1 0 32.502854 0 23.696662 16.251427 90 1 0-32.502854 0Z" fill="#181C31" p-id="8291"></path><path d="M12.048472 382.909233h999.903056v590.97553a50.115237 50.115237 0 0 1-50.115237 50.115237H62.163709A50.115237 50.115237 0 0 1 12.048472 973.884763V382.909233z" fill="#E51313" p-id="8292"></path><path d="M1011.951528 502.433273V383.229458H661.224924v640.770542h157.150496V735.397076h193.576108v-116.882183h-193.576108v-116.08162h193.576108zM359.172543 721.147057c0 67.487452-14.410132 87.421468-17.292158 90.703776-9.686811 11.127824-26.97897 16.731765-51.396138 16.731764a52.276757 52.276757 0 0 1-38.667188-17.132046c-6.404503-6.404503-17.132046-24.016887-17.132046-73.171449v-112.078805H32.062544v99.269799c0 100.310531 25.618013 176.123837 76.133531 224.157611s112.719256 72.611055 186.611211 72.611055c80.05629 0 145.782503-25.618013 194.376671-76.133532s72.611055-127.209444 72.611055-229.681495V382.909233H359.172543z" fill="#F22F2F" p-id="8293"></path><path d="M209.307169 617.71433m-54.438277 0a54.438277 54.438277 0 1 0 108.876554 0 54.438277 54.438277 0 1 0-108.876554 0Z" fill="#AF0202" p-id="8294"></path><path d="M814.772887 617.71433m-54.438277 0a54.438277 54.438277 0 1 0 108.876554 0 54.438277 54.438277 0 1 0-108.876554 0Z" fill="#AF0202" p-id="8295"></path><path d="M512 833.626143c-85.259948 0-165.716519-21.294973-226.5593-60.042217a238.247518 238.247518 0 0 1-72.05066-67.96779 156.830271 156.830271 0 0 1-27.699476-88.061918 23.376437 23.376437 0 1 1 46.672817 0c0 43.15034 27.61942 84.539442 77.894769 116.481901C364.296146 768.54038 435.546243 786.953327 512 786.953327s148.024079-18.412947 201.581737-52.757095c50.195294-32.022516 77.89477-73.331561 77.89477-116.481902a23.376437 23.376437 0 1 1 46.672817 0 156.830271 156.830271 0 0 1-27.699476 88.061919 238.247518 238.247518 0 0 1-72.050661 67.96779c-60.682668 38.507075-141.139239 59.882105-226.399187 59.882104z" fill="#FFFFFF" p-id="8296"></path><path d="M914.362911 400.281448c0 17.852553-6.084278 37.866625-34.824486 41.549214-10.56743 1.360957-21.294973-5.363771-33.463529-5.363771s-19.934016 6.884841-34.264092 5.043546c-32.422797-4.242983-34.103979-24.016887-34.103979-41.228989 0-26.338519 30.581503-48.033774 68.288015-48.033774s68.368071 21.375029 68.368071 48.033774z" fill="#181C31" p-id="8297"></path><path d="M813.892268 416.933156a33.703698 32.102572 90 1 0 64.205144 0 33.703698 32.102572 90 1 0-64.205144 0Z" fill="#181C31" p-id="8298"></path><path d="M246.293175 400.281448c0 17.852553-6.084278 37.866625-34.824486 41.549214-10.56743 1.360957-21.294973-5.363771-33.463529-5.363771s-19.934016 6.884841-34.264092 5.043546c-32.422797-4.242983-34.103979-24.016887-34.103979-41.228989 0-26.338519 30.581503-48.033774 68.288015-48.033774s68.368071 21.375029 68.368071 48.033774z" fill="#181C31" p-id="8299"></path><path d="M145.902588 416.933156a33.703698 32.102572 90 1 0 64.205144 0 33.703698 32.102572 90 1 0-64.205144 0Z" fill="#181C31" p-id="8300"></path></svg>